<svg xmlns="http://www.w3.org/2000/svg" viewBox="0 0 783.81 245.88"><defs><style>.cls-1{fill:#1d5f94;}.cls-2{fill:#02638f;}.cls-3{fill:#67c431;}.cls-4{fill:#66c330;}.cls-5{fill:#66c431;}.cls-6{fill:#01628f;}.cls-7{fill:#01638f;}.cls-8{fill:#67c432;}.cls-9{fill:#036490;}.cls-10{fill:#00628e;}.cls-11{fill:#50ade4;}.cls-12{fill:#50ace4;}.cls-13{fill:#4face4;}.cls-14{fill:#3aa6e2;}</style></defs><g id="Layer_2"><g id="Layer_1-2"><path class="cls-1" d="M133.35,0c3.88.65,7.76,1.26,11.63,2a119.11,119.11,0,0,1,57.36,26.92c5.17,4.43,9.72,9.58,14.56,14.4a8.36,8.36,0,0,1-2.46-1.17A109,109,0,0,0,186,21c-21.88-11.1-45-14.58-69-9.68C91.68,16.5,70.72,29.2,54.57,49.61a103.07,103.07,0,0,0-22.3,55.6,102.55,102.55,0,0,0,3.41,38.13,105.55,105.55,0,0,0,39.38,56.75C93.27,213.6,114.12,220,136.6,220.82a87.92,87.92,0,0,0,20.23-2c26.8-5.36,49-18.45,65.3-40.59,21.15-28.73,26.61-60.38,16.37-94.54-2-6.79-5.23-13.23-7.89-19.83,1.78,3.17,3.82,6.23,5.28,9.55a122.22,122.22,0,0,1,9.86,38.41q3.78,42-19,77.41c-18.32,28.42-44.32,46.6-77.33,53.65-37.43,8-71.77,0-102.14-23.41C23.93,201.44,9,177.68,3,149-4.93,111.6,3,77.33,26.48,47,45.29,22.8,70.29,8.3,100.22,2.05c4-.84,8.15-1.37,12.23-2Z"/><path class="cls-2" d="M783.81,170.78H751.07c-.15,4.23,1,7.64,4.49,9.91,2.74,1.78,6.47,1.77,8.45-1,2.58-3.65,5.77-2.45,8.86-2.24s6.37.89,9.56,1.37c-2.27,8.22-10.18,14.32-19.43,14.75a52.22,52.22,0,0,1-9.77-.2c-9.67-1.37-15.09-7.6-17.72-16.51a37.6,37.6,0,0,1-.06-21.31c4.09-14.28,15.6-18.92,28.59-17,12.62,1.84,18,11.82,19.14,21.22a4.28,4.28,0,0,0,.63,1.29Zm-17.18-9.86c.25-6.64-3.15-10.5-7.31-10.68-5.06-.22-8.88,5.49-8.09,10.68Z"/><path class="cls-3" d="M251.92,30.67c14.15,0,28.08-.28,42,.11,7.06.19,13,3.49,15.92,10.32,2.69,6.26,2.39,12.54-2.06,18-1.78,2.17-4.39,3.66-6.51,5.37,6.44,1.65,11.5,5.66,12.79,12.79s.36,14.28-5.64,19.34a20.72,20.72,0,0,1-8.8,4.3,79.94,79.94,0,0,1-14.83,1.4c-10.66.18-21.32,0-32,0a5.49,5.49,0,0,1-.88-.19Zm21.28,56c4.93,0,9.57.18,14.2-.06a6.31,6.31,0,0,0,6-6.1c.22-3.94-1.39-7-4.7-7.37-5.07-.66-10.23-.73-15.45-1Zm-.09-27.77c4.73-.26,9.15-.25,13.5-.84,3.2-.43,4-3.17,4.14-6.08s-1-5.45-3.87-6c-4.47-.82-9.07-.94-13.77-1.37V58.9Z"/><path class="cls-4" d="M473.25,73c-3.32,3.6-6.55,7-9.58,10.48A6,6,0,0,0,462.55,87c-.13,5-.05,10-.05,15.14H441.78V30.8h20.56v27c6.32-7.8,12.25-14.73,17.71-22,2.81-3.76,5.66-5.72,10.66-5.32,6.92.54,13.91.13,21.38.13-2.17,2.5-4,4.76-6,6.92-5.5,6-11,12-16.6,17.89-1.53,1.6-1.75,2.67-.57,4.68C497,74,505,87.87,513.31,102.34h-7.68c-4.67,0-9.38-.31-14,.1-3.51.3-4.86-1.23-6.17-4.11C481.59,89.88,477.42,81.57,473.25,73Z"/><path class="cls-5" d="M551.16,103.77c-9.79-.38-18.19-1.7-25.07-7.83a32.34,32.34,0,0,1-10.26-18.17c-2-9.6-1.87-19.17,1.75-28.32,4.61-11.63,13.48-18,25.93-19.56,12.25-1.5,23.59.19,32.57,9.55,5.42,5.66,7.81,12.72,8.56,20.43.8,8.36.5,16.64-2.7,24.49-4.4,10.75-12.52,17-24.08,18.62C555.3,103.35,552.72,103.59,551.16,103.77Zm13-37.74a89.83,89.83,0,0,0-1.28-9.63,12.73,12.73,0,0,0-12.24-10.12c-6.63-.18-11.58,3.1-13.46,9.33a38.83,38.83,0,0,0-.09,22c1.82,6.5,7.12,9.71,14.18,9.21,6.59-.48,10.72-4.28,11.82-11.14C563.54,72.62,563.74,69.49,564.11,66Z"/><path class="cls-4" d="M362.58,30.79h20.86v3.65c0,13.68,0,27.37,0,41.05,0,7,4.31,11.25,11.31,11.27,7.23,0,11.54-4.19,11.56-11.41,0-13.57,0-27.15,0-40.73V30.86h20.74c.05.84.14,1.67.14,2.5,0,14.34.27,28.69-.08,43-.25,10.24-4.56,18.76-13.85,23.75a28,28,0,0,1-12,3.28c-6.65.21-13.53.09-20-1.42-10.51-2.48-16.08-10.26-18.07-20.61a47.32,47.32,0,0,1-.67-8.67C362.54,58.82,362.58,44.93,362.58,30.79Z"/><path class="cls-4" d="M617.23,75.61v26.55h-20.6V30.9a13.19,13.19,0,0,1,2-.25c11.53,0,23.06-.25,34.58.07,8.3.23,15.47,3.08,18.9,11.54C655.64,51,654.26,64,647.43,70a22.94,22.94,0,0,1-14.79,5.59C627.66,75.75,622.67,75.61,617.23,75.61Zm.22-30.68V61.26c2.42,0,4.68.07,6.93,0a19,19,0,0,0,3.5-.62A7.44,7.44,0,0,0,633.6,53c-.11-3.72-2.56-6.89-6.05-7.35C624.26,45.25,620.93,45.17,617.45,44.93Z"/><path class="cls-6" d="M542.91,183.2c-3.5,4.22-7,6.77-11.75,7.11-6.58.47-12.54-3.3-15.67-10.43a39.56,39.56,0,0,1-.52-31.34c2.23-5.67,6.56-9.66,13-10.32,6.9-.7,12.25,1.85,16,8.71v-7.26H559.8v2.87c0,16.51.28,33-.09,49.52-.29,13.08-6.89,21.91-21.62,21.72-3.46-.05-6.93-.18-10.36-.54-10.75-1.13-15.35-10-14-19.53,5,.64,9.95,1.23,14.91,2,.48.07.95.94,1.24,1.53,1.53,3,4.43,4.68,7.27,4.08a7,7,0,0,0,5.68-6.5c.14-1.95.09-3.91.11-5.86C542.92,187.33,542.91,185.72,542.91,183.2Zm-14-18.85-.15,0a62.46,62.46,0,0,0,.76,6.42c.67,3.13,2.59,5.19,5.94,5.5s5.51-1.83,6.59-4.66a18.64,18.64,0,0,0,0-13.57c-1.5-3.93-4-5.37-7.67-4.89-2.46.33-4.79,3.2-5.23,6.63C528.94,161.3,529,162.83,528.91,164.35Z"/><path class="cls-6" d="M641.67,192.14H625.31V139.67H640.5v6.85c3.32-2.53,6.29-5.89,10-7.41,9.47-3.87,19,2.22,19.5,12.77.62,13.3.15,26.65.15,40.2H653.91c0-4.8,0-9.55,0-14.29,0-5.87,0-11.73-.08-17.6-.07-3.35-1.8-5.44-4.48-5.81-3.33-.46-5.72.82-6.53,4.31a50.26,50.26,0,0,0-1.1,10.25C641.56,176.62,641.67,184.31,641.67,192.14Z"/><path class="cls-6" d="M328.6,192.14H312.29c0-10.1,0-20.06,0-30a22.25,22.25,0,0,0-.59-4.11,4.3,4.3,0,0,0-4.32-3.68c-2.48-.18-4.74.53-5.53,3a33.89,33.89,0,0,0-1.85,9.06c-.25,8.46-.09,16.94-.09,25.66H283.79V139.7h14.89v8a55.23,55.23,0,0,1,5-5.65c4.81-4.09,10.4-5.2,16.29-2.87,5.62,2.22,8.27,7.24,8.46,12.72C328.91,165.24,328.6,178.56,328.6,192.14Z"/><path class="cls-2" d="M423.31,170.7H391c-.66,4.53,1.47,8.92,4.9,10.42s6.39.57,9.57-3a3.56,3.56,0,0,1,2.63-1c4.71.42,9.41,1,14.12,1.54-4,10.28-10.55,14.18-19.8,14.84a59.09,59.09,0,0,1-10.37-.46c-7.83-.83-12.63-5.8-15.55-12.52a35.49,35.49,0,0,1-.89-26.73c4.67-13.12,15.56-17.11,28-15.31,13.59,2,18.35,12,19.66,23.91A78.67,78.67,0,0,1,423.31,170.7Zm-17-9.79c.18-6.62-2.8-10.74-7.63-10.7-4.6,0-8.11,4.8-7.78,10.7Z"/><path class="cls-7" d="M617.58,170.78H585.07c-.8,4.1,1.44,8.77,4.85,10.3s6.46.61,9.53-3a3.61,3.61,0,0,1,2.64-1c4.71.41,9.4,1,14.1,1.54-2.26,8.18-10.45,14.58-19.57,14.84a51.4,51.4,0,0,1-12.89-.92c-7.8-1.8-11.84-7.79-14.25-14.9a35.66,35.66,0,0,1,.39-24.61c2.93-7.74,8.42-12.89,16.87-14.41,6.56-1.17,13-.72,18.88,2.4,6.53,3.43,9.57,9.53,10.88,16.41C617.3,161.67,617.22,166,617.58,170.78Zm-32.73-9.85h15.86c-1.76-8.76-3.73-11-8.68-10.63C588.41,150.59,584.66,154.26,584.85,160.93Z"/><path class="cls-2" d="M712.87,171.77l15.4,2.1c-2.25,11.83-10.37,20.31-23.64,19.8-5.48-.21-10.82-.56-15.46-3.66-6-4-9.16-9.9-10.07-16.93-1.13-8.81-1-17.49,4.35-25.21a20.8,20.8,0,0,1,17.7-9.62,45.26,45.26,0,0,1,11.28,1c8.69,2.16,12.81,8.74,15.11,17.1l-14.43,2.53c-2.18-2.32-3.69-5-6-6.11-3.76-1.9-8.26.06-10.08,4a22.19,22.19,0,0,0-.52,18.19,7.45,7.45,0,0,0,7.54,5.05c3.77,0,6-2.08,7.52-5.16C712.08,173.85,712.42,172.86,712.87,171.77Z"/><path class="cls-8" d="M326.32,30.72h21v71.41h-21Z"/><path class="cls-6" d="M342.33,154.5h-5.64V139.62l5.64-.25c0-2.68-.13-5.27.07-7.83a4.13,4.13,0,0,1,1.43-2.86c4.73-3.13,9.6-6.07,14.81-9.31v20h8.93v14.91h-8.34c0,7.59-.07,14.92,0,22.24,0,2.18,1.66,2.93,3.65,2.66,1.35-.19,2.66-.65,4.42-1.09.41,4.57.82,9.16,1.3,14.49-5.09.34-9.89,1-14.67.9a10.91,10.91,0,0,1-10.91-10.65c-.52-8.1-.52-16.22-.73-24.34C342.3,157.24,342.33,156,342.33,154.5Z"/><path class="cls-9" d="M253,192.13V119.49h18.55v72.64Z"/><path class="cls-6" d="M459.44,119.4H476v72.65H459.44Z"/><path class="cls-10" d="M447.93,192.19H432v-72.7h15.93Z"/><path class="cls-10" d="M487.51,139.58h15.94v52.5H487.51Z"/><path class="cls-10" d="M487.54,119.39h15.87v13.36H487.54Z"/><path class="cls-1" d="M226.12,56.09l-4.65-5.91Z"/><path class="cls-1" d="M219.92,46.93c-2.21-.21-3.12-1.32-3-3.62Z"/><path class="cls-1" d="M228.06,59.35c-.66-1.11-1.33-2.22-2-3.33C226.73,57.13,227.4,58.24,228.06,59.35Z"/><path class="cls-1" d="M221.52,50.23c-.44-1-.87-2-1.31-3C220.65,48.22,221.08,49.23,221.52,50.23Z"/><path class="cls-1" d="M230.67,63.92c-.44-.9-.89-1.8-1.34-2.69C229.78,62.12,230.23,63,230.67,63.92Z"/><path class="cls-1" d="M229.39,61.3l-1.38-2Z"/><path class="cls-11" d="M108,160.38c3.68,3.52,6.79,6.62,11.6,7.14,7.84.84,12.77-3.14,16.17-9.54,4.68-8.81,5.78-18.39,5.47-28.2-.1-3.2-.48-6.39-.74-9.72h28.52c.07,5.3.66,10.58.11,15.75a76.43,76.43,0,0,1-8.34,28.31C155,175,146.83,183,134.53,186a34.08,34.08,0,0,1-17.34.07c-10.28-2.8-13.06-9.51-11-19.62C106.57,164.5,107.35,162.62,108,160.38Z"/><path class="cls-11" d="M146.11,65.83c-.51-2.91-.79-5.47-1.42-7.95-2.49-9.76-10.33-14.35-20.23-15.38A52.12,52.12,0,0,0,88,52C77.23,59.58,71.37,70.05,69.33,82.9c-1.15,7.25-1.16,14.34,2,21.34a23.12,23.12,0,0,1-14.58-3c-6.33-3.82-7-10.13-6.62-16.5,1.07-17,11.49-28.09,24.62-37.2a81.12,81.12,0,0,1,39.46-14.12c10.75-1,21.63-.79,31.93,3.72,11.34,5,18.23,13.16,19.77,25.57.24,1.87,0,3.19-2.43,3.16C157.75,65.78,152,65.83,146.11,65.83Z"/><path class="cls-12" d="M111.82,110.73H84.34l-.67-.58,5-24.25c.53-2.63,1-5.29,1.69-7.88.2-.73,1.11-1.8,1.71-1.81,9.11-.11,18.22-.08,27.6-.08l-4.17,20.14c4.12.58,7.57-.53,10.86-2.09a31.65,31.65,0,0,0,15.34-15.69,3.55,3.55,0,0,1,3.88-2.43c5.86.13,11.72,0,18.27,0-3.44,9.49-10,15.55-17.72,20.74,8.26,1.83,14.77,5.76,18.75,13.25l-.76.64H135.28l-.69-.54c-5.86-5.35-13-4-19.93-3.65-.82,0-1.54,2.39-2.31,3.66Z"/><path class="cls-11" d="M67.73,183.63c4.55-21.36,9-42.45,13.55-63.58h29.06L96.68,183.63Z"/><path class="cls-4" d="M194.15,59.66l6.34-7c13.27,24.48,19,50.23,15.67,78.53-3.48-2.65-6.94-4.8-9.7-7.64-.92-1-.23-3.66,0-5.51,1.65-11.11-.09-22-3.1-32.55C201,76.9,197.41,68.62,194.15,59.66Z"/><path class="cls-4" d="M201.06,119.58c-2.56-1.89-4.67-3.23-6.48-4.88a4.15,4.15,0,0,1-1.09-3,70.62,70.62,0,0,0-4.6-31.88c-.71-1.78-1.44-3.56-2.24-5.3-2.18-4.74-2.2-4.74,1.59-8.39.53-.5,1.08-1,1.87-1.71C199.1,81.7,203.57,99.62,201.06,119.58Z"/><path class="cls-13" d="M124.75,52.12c-.87,4-1.59,7.81-2.57,11.54-.22.84-1.31,2.06-2,2.08-9,.14-18,.09-26.94.09A3.85,3.85,0,0,1,93,65c.21-7.45,3.66-10.7,11.5-10.48,5.72.15,11.49-1.54,17.25-2.36A21.29,21.29,0,0,1,124.75,52.12Z"/><path class="cls-4" d="M179.46,75.88c5.18,9.92,7.84,20.24,6.45,31.66-4-1.79-5.67-4.15-5.74-8.53a51.94,51.94,0,0,0-2.79-14.67C175.84,79.5,175.42,79.63,179.46,75.88Z"/><path class="cls-8" d="M169.41,87.28c.55,3.09,1,5.64,1.52,8.51C166.47,94,165.67,90.48,169.41,87.28Z"/><path class="cls-14" d="M83.67,110.14l.67.58-.87-.1Z"/><path class="cls-14" d="M164.07,110.72l.76-.64Z"/><path class="cls-14" d="M111.82,110.73l.53-.55Z"/><path class="cls-14" d="M134.59,110.17l.69.54Z"/></g></g></svg>